<svg width="78" height="22" viewBox="0 0 78 22" fill="none" xmlns="http://www.w3.org/2000/svg">
<path d="M0 0V17.2533H3.50901V11.813H6.64621C10.1785 11.813 12.6301 9.44565 12.6301 5.90652C12.6301 2.35543 10.2598 0 6.8205 0H0ZM3.50901 2.85761H5.89096C7.90109 2.85761 9.06301 3.95761 9.06301 5.91848C9.06301 7.8913 7.88947 8.9913 5.87934 8.9913H3.50901V2.85761Z" fill="#0D1426"/>
<path d="M17.3011 17.4565C18.858 17.4565 20.4034 16.6554 21.1006 15.2924H21.1703V17.2533H24.4469V8.4413C24.4469 5.8587 22.367 4.16087 19.1718 4.16087C15.8719 4.16087 13.8153 5.87065 13.6875 8.35761H16.7898C16.9525 7.41304 17.7542 6.76739 19.0207 6.76739C20.2988 6.76739 21.1122 7.46087 21.1122 8.65652V9.50544L17.975 9.69674C14.8726 9.88804 13.1297 11.2391 13.1297 13.5707C13.1297 15.8783 14.9307 17.4565 17.3011 17.4565ZM18.4165 14.9337C17.2662 14.9337 16.4993 14.3359 16.4993 13.3793C16.4993 12.4707 17.2197 11.8848 18.4862 11.7891L21.1122 11.6217V12.5543C21.1122 13.9413 19.8921 14.9337 18.4165 14.9337Z" fill="#0D1426"/>
<path d="M28.1767 22C31.3487 22 32.9173 20.8163 33.9747 17.5283L38.2622 4.43587H34.6835L32.0459 14.4554H31.9762L29.327 4.43587H25.6088L29.9428 17.2533C29.9544 17.313 29.8266 17.8152 29.8266 17.875C29.5942 18.8913 28.9784 19.2978 27.7468 19.2978C27.6189 19.2978 27.0031 19.2859 26.8869 19.262V21.9641C27.0031 21.988 28.0489 22 28.1767 22Z" fill="#0D1426"/>
<path d="M43.7929 17.4565C45.6288 17.4565 47.0696 16.4641 47.6738 15.0533H47.7319V17.2533H51.0782V0H47.6854V6.63587H47.6157C47.0115 5.21304 45.6172 4.23261 43.8162 4.23261C40.6906 4.23261 38.7153 6.75544 38.7153 10.8207C38.7153 14.9217 40.679 17.4565 43.7929 17.4565ZM44.9432 7.03044C46.628 7.03044 47.7086 8.51304 47.7086 10.8446C47.7086 13.188 46.628 14.6467 44.9432 14.6467C43.2352 14.6467 42.1895 13.2 42.1895 10.8446C42.1895 8.50109 43.2352 7.03044 44.9432 7.03044Z" fill="#0D1426"/>
<path d="M57.0389 17.4565C58.5959 17.4565 60.1412 16.6554 60.8384 15.2924H60.9081V17.2533H64.1847V8.4413C64.1847 5.8587 62.1049 4.16087 58.9096 4.16087C55.6097 4.16087 53.5531 5.87065 53.4253 8.35761H56.5276C56.6903 7.41304 57.492 6.76739 58.7585 6.76739C60.0366 6.76739 60.85 7.46087 60.85 8.65652V9.50544L57.7128 9.69674C54.6105 9.88804 52.8676 11.2391 52.8676 13.5707C52.8676 15.8783 54.6686 17.4565 57.0389 17.4565ZM58.1543 14.9337C57.004 14.9337 56.2372 14.3359 56.2372 13.3793C56.2372 12.4707 56.9575 11.8848 58.224 11.7891L60.85 11.6217V12.5543C60.85 13.9413 59.63 14.9337 58.1543 14.9337Z" fill="#0D1426"/>
<path d="M67.9145 22C71.0865 22 72.6551 20.8163 73.7125 17.5283L78 4.43587H74.4213L71.7837 14.4554H71.714L69.0648 4.43587H65.3466L69.6806 17.2533C69.6922 17.313 69.5644 17.8152 69.5644 17.875C69.332 18.8913 68.7162 19.2978 67.4846 19.2978C67.3568 19.2978 66.741 19.2859 66.6248 19.262V21.9641C66.741 21.988 67.7867 22 67.9145 22Z" fill="#0D1426"/>
</svg>
